<!-- Created with Inkscape (http://www.inkscape.org/) -->
<svg xmlns:svg="http://www.w3.org/2000/svg" xmlns="http://www.w3.org/2000/svg" xmlns:xlink="http://www.w3.org/1999/xlink" xmlns:inkscape="http://www.inkscape.org/namespaces/inkscape" width="2316.71" height="1024.0" id="svgroi" version="1.1">
  <defs id="defs4">
    <clipPath id="edgeclip">
      <path id="clippath" d="M1179.112915 796.686279 L1177.277100 798.288940, 1175.465820 799.871155, 1174.100708 799.500061, 1172.710693 799.227112, 1171.289673 799.145996, 1169.910156 799.125793, 1168.018311 800.862732, 1166.063477 802.541199, 1164.302490 804.314941, 1162.714600 804.387573, 1160.968628 804.659851, 1159.206299 805.087769, 1157.410156 805.490356, 1155.530151 805.851624, 1153.549561 806.289551, 1151.317505 808.307739, 1148.765137 810.426819, 1146.248657 812.626160, 1144.025146 814.662964, 1141.581909 816.832886, 1139.266357 819.040771, 1136.982788 821.649902, 1134.671997 824.872620, 1132.446411 828.712158, 1130.433716 833.080688, 1128.489380 837.159607, 1126.918091 837.424377, 1125.224731 837.801636, 1124.041504 841.067017, 1123.203491 843.701172, 1122.603149 845.916260, 1122.214600 847.857788, 1121.581299 849.816650, 1120.347168 850.067261, 1119.158813 850.415527, 1117.892700 850.817139, 1116.427246 851.489624, 1114.930176 852.406128, 1113.591675 853.410278, 1112.325684 854.539429, 1111.080566 855.870605, 1110.130981 852.982544, 1108.699463 850.461670, 1107.385254 848.689819, 1105.755005 849.880127, 1104.056274 851.234924, 1102.578003 852.712402, 1101.215332 854.090759, 1099.942993 855.534668, 1098.658203 856.921265, 1097.204224 858.320496, 1095.644287 859.643860, 1094.010986 860.941284, 1092.453979 862.390015, 1090.938721 863.783264, 1089.207397 865.028809, 1086.264404 863.237793, 1084.418457 864.476624, 1082.411011 865.897217, 1080.515503 867.666626, 1078.618896 869.233276, 1076.823486 870.790771, 1075.145386 872.287598, 1073.101196 873.619812, 1071.298096 875.237366, 1069.479614 876.637024, 1069.889404 880.647583, 1068.190186 882.120361, 1066.702759 883.367310, 1065.260742 884.441162, 1063.885742 885.489258, 1062.468384 886.434082, 1060.899658 887.252869, 1059.239868 888.059692, 1057.921387 889.148987, 1056.117920 889.843628, 1054.372314 890.575806, 1050.773682 889.586121, 1048.579346 890.652283, 1048.173340 894.537964, 1047.878174 898.495483, 1048.336426 901.895630, 1048.975464 905.047058, 1047.457886 905.272156, 1045.730347 905.618591, 1044.034302 906.126587, 1041.944336 906.382996, 1040.171875 906.845703, 1037.963501 907.266541, 1035.696045 907.964355, 1033.364014 908.459412, 1033.297241 911.612000, 1033.080811 914.286926, 1033.414429 916.931641, 1033.896362 919.338989, 1034.400635 921.599792, 1032.191895 921.526917, 1029.967163 921.474487, 1027.756226 921.749573, 1025.650513 922.167969, 1023.126099 922.546509, 1020.991455 923.297302, 1021.235107 925.497314, 1021.560913 927.908691, 1022.255981 930.079773, 1022.215576 931.494690, 1022.519043 933.092896, 1019.703796 933.098938, 1016.824463 933.206177, 1013.926270 933.408813, 1011.210938 933.639648, 1008.184387 934.016479, 1004.842651 934.698914, 1002.010681 935.661011, 1001.823547 937.495911, 1001.383179 939.329102, 1001.210510 941.275269, 1001.300598 942.850464, 1001.264893 944.417419, 998.284912 945.166687, 994.692566 945.782593, 991.291687 946.768860, 987.752686 947.888794, 984.105713 949.229309, 979.921204 950.684753, 976.280701 952.020508, 975.556763 954.033142, 974.319397 956.458130, 973.310669 959.155823, 972.156311 960.913452, 971.454773 962.662170, 968.058594 962.362061, 964.358826 961.976196, 960.126038 961.439087, 956.183411 960.561768, 955.164368 962.026123, 953.921326 963.597229, 953.021118 965.133301, 952.485657 966.497925, 952.221069 967.991943, 952.268860 969.647095, 949.654541 968.290222, 946.782776 966.860474, 943.896057 965.962952, 944.052917 967.550171, 944.078369 969.055359, 944.645508 970.707947, 945.159668 972.099487, 945.884521 973.488586, 943.053284 973.396545, 939.693726 973.313354, 936.105164 974.348755, 932.884033 975.475830, 933.057251 977.604126, 932.963196 979.959473, 932.886841 982.524902, 932.910889 984.884827, 932.700806 987.249451, 932.444092 989.566650, 932.546143 991.422485, 928.724609 992.044495, 925.459961 992.642944, 921.853455 993.686951, 918.834717 994.472534, 918.628845 996.976929, 918.154236 999.666748, 918.102539 1002.079529, 918.121094 1004.245239, 918.324585 1006.250854, 920.626770 1008.062195, 920.886108 1009.507568, 921.117432 1010.786987, 921.300293 1012.060547, 921.602539 1013.387634, 921.859741 1014.641479, 922.274170 1015.889343, 922.695190 1017.328552, 924.547852 1018.226807, 926.728760 1018.578186, 925.546753 1019.303894, 923.361023 1018.819580, 922.174988 1018.985291, 921.005737 1019.587585, 919.759705 1020.089783, 918.504700 1020.786377, 917.291138 1021.432495, 915.116089 1020.919373, 912.754333 1020.388977, 909.940918 1019.953979, 908.514526 1020.932861, 907.280457 1021.877136, 905.918884 1022.817505, 904.922974 1024.000000, 902.130493 1023.610474, 899.406799 1023.114258, 896.657166 1022.535583, 893.677185 1021.974731, 890.814514 1021.239136, 887.951111 1020.543274, 885.136169 1019.859802, 882.326599 1019.261658, 879.508972 1018.586426, 878.597107 1020.059448, 875.977173 1019.583862, 873.363159 1019.255554, 870.454590 1018.764343, 867.442810 1018.185486, 864.385742 1017.816467, 860.958740 1017.373596, 857.738098 1017.025513, 853.816101 1016.530945, 849.838318 1016.033386, 846.065063 1015.611572, 842.553406 1015.054321, 839.355286 1014.644775, 836.596008 1014.137329, 834.169861 1014.003357, 832.616577 1010.832275, 831.204468 1007.311646, 829.990784 1003.612183, 828.834534 999.990967, 830.589417 996.934021, 829.666016 992.842957, 828.693604 988.999634, 828.083984 984.867859, 827.375122 980.721375, 829.780579 978.478394, 831.918518 976.496826, 834.181030 974.185486, 836.424683 971.972839, 838.572693 969.792053, 838.679810 965.094177, 841.126038 962.860413, 843.452942 960.735779, 846.171631 958.616699, 848.255676 957.015808, 848.572021 953.168457, 848.970520 949.178528, 849.472961 945.733826, 850.035461 942.436218, 850.244934 939.093140, 850.196045 935.925110, 848.080139 933.381470, 845.638306 932.380737, 842.460815 932.951843, 839.252747 934.197327, 836.289185 935.796997, 833.953186 938.025146, 831.344238 940.580566, 829.436768 939.701599, 827.008728 939.099731, 824.663635 938.378418, 822.308838 937.680786, 818.984009 940.768799, 816.683105 939.885071, 814.617676 938.884766, 812.795349 937.605347, 810.712585 936.037781, 808.913513 934.403687, 805.236267 936.049194, 801.185730 937.609497, 797.213501 938.928406, 793.108337 939.819702, 790.777649 937.453247, 786.752747 937.925232, 782.634644 938.052979, 778.827087 938.065552, 775.466003 937.926758, 771.787659 937.671265, 768.262268 937.310425, 766.674194 939.002441, 765.151855 940.734680, 763.228577 942.750122, 760.941650 944.837463, 758.229370 947.449158, 755.283691 949.851440, 752.504517 951.982422, 750.065918 953.747375, 747.847656 955.230957, 745.505188 956.609985, 743.265076 957.868347, 741.021240 958.875488, 738.740784 959.820190, 736.699341 960.746216, 734.636169 961.646667, 732.463562 962.529114, 732.861633 964.325500, 730.456177 964.958069, 727.925598 965.773315, 725.310730 966.525879, 722.715515 967.295410, 720.088989 967.989197, 717.677124 968.800659, 714.784302 968.743774, 715.211853 967.638977, 715.125122 966.412231, 714.955688 965.071228, 714.769897 963.711243, 714.245178 962.349976, 713.573303 961.032471, 712.944763 959.711182, 712.063049 958.422852, 711.071899 957.115784, 709.987732 955.797974, 708.879028 954.508789, 707.674805 953.343750, 706.448669 952.249817, 705.141724 951.091064, 703.773804 950.022339, 702.277466 948.969849, 700.780151 947.960327, 699.110718 946.912231, 700.383179 945.999878, 701.515808 944.797119, 702.617065 943.443298, 703.798218 942.077271, 704.983582 940.614624, 706.202759 939.249268, 707.690186 937.625793, 708.888062 936.034790, 710.461182 934.361816, 711.764832 932.733887, 713.135498 931.002014, 714.629944 929.382629, 716.014954 927.542725, 717.636475 925.605164, 719.108459 923.588928, 720.624023 921.229126, 722.796204 918.318481, 724.748169 915.415161, 726.681946 912.588684, 728.168579 910.017456, 729.601501 907.691711, 730.531494 905.530029, 731.090637 903.691040, 731.471863 901.748962, 731.724854 899.796082, 732.038147 897.875854, 732.397827 895.982483, 732.530762 894.126221, 732.776367 892.056152, 733.152588 889.775757, 733.686829 887.289429, 734.503357 884.692078, 735.293518 882.189087, 736.209351 879.739990, 737.132629 877.092285, 738.065369 874.362427, 738.973694 871.670776, 740.283325 868.890503, 741.518494 865.965820, 742.630981 863.197388, 743.894409 860.199463, 744.634155 857.330200, 745.283508 854.404114, 745.844727 851.740601, 746.210266 849.090454, 746.627991 846.490234, 746.855164 843.781921, 746.857483 841.429565, 747.035278 838.814026, 747.085510 835.852661, 748.292786 834.176880, 748.202698 831.487183, 746.943237 829.409973, 746.706726 826.325745, 746.370667 823.520142, 745.940857 820.606201, 745.395691 817.430725, 744.695435 814.506348, 743.662537 811.380066, 742.549377 808.072937, 740.086670 805.429321, 736.610535 804.050781, 734.200745 804.737366, 731.062805 804.974915, 727.962646 805.608948, 724.529663 806.531372, 721.658081 807.559204, 719.059509 808.504150, 716.259949 809.517151, 713.417236 810.326660, 710.809448 811.068359, 708.216187 811.614990, 705.583618 812.366760, 702.721985 812.969727, 699.524719 813.605713, 696.020752 814.300964, 692.852844 814.671509, 688.959290 815.026062, 684.966980 815.088501, 680.557129 815.221802, 676.155640 815.061951, 671.927307 814.659424, 667.136963 814.110291, 662.637939 813.523926, 658.658997 813.207764, 653.980286 812.339294, 649.502380 811.625122, 645.494202 810.717651, 641.798340 810.117310, 638.432495 809.497009, 635.274719 809.162964, 632.028748 808.888123, 629.043030 808.569580, 626.317566 808.387451, 623.532349 808.025024, 620.619202 807.566528, 617.751526 807.332581, 614.642334 806.505493, 611.187012 805.412476, 607.841858 804.382141, 603.817139 802.103149, 599.680603 800.103821, 595.681885 797.678040, 591.924744 794.936829, 588.412659 792.356628, 585.603210 790.113464, 582.846130 787.769897, 579.889465 785.233154, 577.450134 783.092163, 575.081665 780.889404, 572.624878 778.710754, 570.195129 776.385254, 567.698730 774.042114, 565.449829 771.887329, 563.123779 769.606689, 560.874146 767.196472, 558.449524 764.807129, 555.990417 762.600830, 553.149475 760.302429, 550.367065 758.186401, 547.567200 756.423340, 544.986511 754.738159, 542.061035 754.678101, 538.874573 754.250122, 535.667297 754.056763, 532.904968 753.986694, 530.103699 753.984985, 527.351990 754.007690, 524.939941 754.099915, 522.587830 754.132935, 520.348755 754.144897, 518.282715 754.294067, 516.192383 754.418701, 514.268066 754.591614, 512.677063 754.777954, 511.134460 754.985107, 509.678284 755.200195, 508.284119 755.435425, 507.032837 755.843262, 505.805481 756.199341, 504.636688 756.530212, 503.509247 756.834351, 502.358307 757.199036, 501.186798 757.505249, 499.997803 757.727295, 498.800446 758.006470, 497.014862 756.683594, 495.155701 755.707581, 493.392303 755.168945, 492.149139 755.972778, 491.033722 756.739258, 489.805542 757.731567, 488.931580 758.595093, 488.102722 757.113831, 487.765411 755.730713, 487.200745 754.162842, 488.426025 753.465088, 487.999390 751.902954, 487.471405 750.243408, 486.667419 748.491455, 485.767242 746.843628, 484.562012 745.063477, 483.146240 743.264038, 481.414825 741.427002, 478.257355 739.667847, 474.741302 737.883484, 471.010437 736.259033, 466.967316 734.508545, 462.290070 732.539795, 457.739807 730.604309, 453.618073 728.740295, 448.891388 726.539429, 444.590729 724.685425, 440.531860 722.749207, 436.232361 720.892578, 432.820465 719.704590, 428.397064 718.575317, 424.894165 718.029114, 421.075928 717.451660, 418.925110 718.110535, 414.611053 717.913269, 411.004303 717.556396, 407.615417 717.087585, 404.484924 716.581604, 401.167023 715.927490, 398.022491 715.151611, 394.679413 714.404663, 392.820251 712.422424, 390.567719 710.278076, 388.416412 707.898315, 384.049622 706.295654, 379.258209 704.361816, 373.573792 701.824707, 368.518768 699.690796, 363.909668 697.429871, 359.403168 695.382080, 355.290405 693.619629, 351.340027 691.925781, 347.935089 690.270752, 346.915222 687.918335, 345.799316 685.339539, 344.996979 682.958130, 341.474335 680.956726, 338.340759 679.090637, 335.558136 677.252075, 332.936401 675.245361, 331.830475 672.674072, 331.038605 670.261597, 330.296387 667.711670, 328.087036 666.089844, 325.706726 664.158325, 323.791779 662.643311, 321.839325 661.053101, 320.146454 659.511841, 318.519226 657.870239, 316.971100 656.366333, 316.913849 653.791382, 316.604370 651.016846, 316.311768 648.455078, 314.693512 646.166199, 313.129028 644.177490, 311.331451 641.958740, 309.598999 639.611267, 309.241974 636.740601, 308.812927 634.138672, 308.705902 631.771606, 306.720551 628.608093, 304.409760 625.600891, 302.411224 622.660156, 300.119476 619.726440, 298.076569 617.393188, 295.753998 614.799438, 293.283264 611.976074, 290.818085 609.104980, 288.540283 606.081970, 286.174347 602.884583, 284.069214 599.392456, 282.124634 596.024597, 282.245605 592.234131, 282.614136 588.729248, 282.771515 584.683289, 280.643524 580.222900, 278.507751 575.421143, 276.541748 571.184204, 274.425720 566.312805, 272.099670 560.867432, 272.224335 556.211060, 272.335846 551.697144, 270.470245 546.828979, 268.700623 542.687256, 266.903137 538.533691, 264.564728 533.045410, 262.678589 528.415344, 259.992218 522.843750, 257.346222 517.297119, 255.827606 512.456055, 251.936661 508.640564, 245.369705 506.557495, 240.867218 506.551941, 235.523972 506.571655, 231.122604 506.734985, 227.169022 506.938232, 223.347488 507.493469, 219.285004 507.977051, 215.448318 508.559082, 211.547302 506.926697, 206.932404 505.491089, 202.214279 505.793213, 197.448883 506.290894, 193.055893 506.479858, 188.720047 506.617432, 184.601913 506.793579, 181.212814 505.137024, 177.621674 503.502502, 174.061935 501.906433, 169.725098 501.825562, 165.426849 501.837585, 161.255249 501.828125, 157.039185 501.357666, 153.186142 500.842834, 149.469421 500.408264, 145.995163 499.722961, 142.732330 498.912781, 139.686310 498.218201, 136.670319 497.699768, 133.807114 497.224121, 131.057999 497.130005, 129.933731 495.612427, 128.110031 494.026550, 126.348862 492.262939, 123.671951 491.996826, 121.019783 491.705750, 118.640877 491.490906, 116.395706 491.201233, 114.786133 489.116760, 113.007011 487.056824, 111.458473 485.150757, 109.201538 484.692078, 106.932739 484.140503, 104.678596 483.467102, 102.434723 482.666260, 100.167221 481.699646, 97.853439 480.759094, 95.384773 479.750366, 94.286522 477.708008, 92.912910 475.503906, 91.317299 473.339478, 88.830978 472.270386, 86.117676 471.017395, 83.435684 469.776978, 80.638496 468.599304, 79.689148 466.336792, 78.526176 463.939941, 77.778282 461.768799, 75.256363 460.156860, 72.550735 458.512085, 69.465324 456.759277, 66.189026 455.124756, 62.740295 453.394226, 58.900814 451.348328, 55.125957 448.974609, 51.397678 446.373657, 48.148808 443.663879, 48.030926 441.073975, 48.068226 438.462036, 48.206951 435.894287, 45.869133 433.452209, 44.090714 431.174683, 42.561722 429.209473, 41.101746 426.789490, 39.631199 424.465149, 38.081165 422.207458, 36.265842 419.907288, 35.690189 417.538818, 33.554428 415.318604, 31.829165 415.345825, 29.999481 415.388855, 28.441469 413.492126, 26.666637 411.645142, 25.019165 409.680420, 23.290112 407.663757, 21.290087 405.598816, 19.116327 403.491516, 17.095957 401.062012, 14.952518 398.872253, 13.043348 396.219360, 11.167191 393.760132, 9.498574 391.526184, 7.803529 389.646606, 6.083851 387.790894, 5.332869 385.693359, 4.438772 383.572815, 3.576888 381.542969, 2.626940 379.699463, 1.786898 377.835876, 2.539077 377.157104, 1.593817 375.331665, 0.696927 373.628479, 0.000000 371.803162, 0.772624 371.100464, 1.627526 370.371582, 0.809126 368.607910, 1.328530 366.335876, 1.774332 367.932068, 3.287765 368.749756, 5.376252 369.515015, 7.285820 370.282166, 9.474937 371.457703, 11.329753 372.551331, 13.366380 374.038879, 15.341273 375.618591, 17.439833 377.177307, 18.233202 376.324097, 19.329754 375.565735, 20.347918 374.570374, 21.275925 373.958008, 22.332186 373.322510, 23.381666 372.511841, 24.546835 371.830872, 25.738533 374.001770, 27.584572 376.048340, 29.263161 378.665344, 31.088554 380.960327, 31.630898 379.761902, 32.281349 378.658203, 32.888618 377.442383, 33.494987 376.467651, 34.100163 375.329102, 34.917866 374.346191, 35.842777 373.171936, 36.932350 372.288147, 38.094727 374.345459, 40.263699 376.138550, 42.378914 378.008667, 44.078945 380.735168, 45.731007 383.743896, 48.397141 385.222595, 51.383118 385.795288, 51.667355 384.320740, 51.705349 382.677917, 51.658276 381.113647, 51.336842 379.664124, 51.128300 378.055542, 51.302933 376.508301, 51.426399 374.815674, 51.409645 372.940063, 51.121220 370.805664, 51.121021 369.044373, 51.128002 366.901611, 50.857727 364.569336, 50.976311 362.494934, 50.995159 360.361694, 50.832996 358.304504, 50.857830 356.056274, 54.235653 357.503723, 58.383007 357.825012, 62.691326 358.247192, 67.118134 357.971558, 71.207146 357.623291, 71.813812 355.584656, 72.918945 353.040588, 73.402542 351.126160, 73.925934 349.002014, 74.316284 346.791565, 74.625854 344.327515, 74.797493 341.736694, 74.771362 339.234436, 74.455811 336.409485, 78.669586 338.593262, 84.781960 339.056030, 89.508163 339.843872, 90.168686 337.153625, 91.609512 333.420654, 93.062111 329.543945, 94.539345 325.798218, 96.518326 321.759644, 98.431084 317.546509, 103.282150 319.868286, 106.468483 321.218689, 109.675064 317.283997, 114.162407 313.911011, 118.694725 311.641113, 124.050735 310.187927, 129.136566 309.933899, 134.163361 310.858093, 139.672256 312.401855, 143.289627 314.595825, 147.424820 316.938171, 150.857697 319.262634, 153.509369 321.026306, 151.962433 324.665649, 150.386063 330.515747, 148.680542 334.482239, 150.595795 336.361694, 151.598999 339.273376, 152.270706 341.198181, 152.674316 342.817871, 152.928635 344.367920, 148.221481 345.815125, 143.307190 347.189392, 137.792709 348.088013, 132.034576 347.968445, 130.144653 350.079468, 127.810432 352.572510, 127.030724 353.880981, 122.802193 352.406555, 118.857887 350.885071, 115.196030 348.381165, 112.179436 345.597961, 109.945541 342.051392, 108.398499 338.447144, 107.741463 334.783630, 107.599342 331.382751, 107.912201 327.850586, 108.326294 324.679749, 109.139809 321.662537, 110.090851 318.662048, 112.203674 316.167847, 112.882347 314.236572, 113.381409 312.475281, 115.650009 310.384399, 118.475121 307.938904, 121.416512 305.996948, 124.617012 304.372620, 127.539856 303.221069, 128.521713 301.940247, 129.613281 300.397156, 130.354095 298.991272, 131.443176 297.606934, 132.437195 296.116882, 135.604187 296.010254, 138.840195 295.899719, 139.849884 294.681946, 141.203934 293.357605, 144.421585 293.874756, 147.864044 294.535034, 151.284546 295.173584, 154.675934 295.784851, 156.243927 294.517517, 157.812805 293.259460, 159.523315 291.937317, 161.229126 290.576294, 163.004257 289.123230, 165.029205 287.662537, 167.165375 286.350220, 169.254654 284.720459, 171.968262 285.587585, 174.741211 285.924377, 177.018097 284.171631, 179.224167 282.522278, 181.440613 280.866211, 183.818527 279.046448, 186.081635 277.290771, 188.288910 275.508423, 190.476730 273.700500, 192.688690 272.048157, 194.841095 272.794617, 196.925095 270.868042, 197.432632 268.023560, 199.576370 266.275879, 201.766983 264.346863, 203.889679 262.402771, 205.873154 260.502869, 207.934814 258.509644, 210.030487 256.504944, 212.071899 254.561218, 214.164673 252.731873, 215.194397 250.010986, 216.385803 247.093567, 217.362579 244.354919, 218.243011 241.545837, 220.033005 240.047058, 221.775909 238.534302, 223.355270 237.196594, 224.413132 234.317505, 225.474777 231.590332, 226.516281 228.930237, 227.430023 226.297302, 228.251114 223.706665, 229.150696 220.906067, 230.853424 219.826294, 232.470078 218.651550, 233.352905 216.005737, 234.273331 213.225403, 235.190659 210.444519, 236.063019 207.740540, 236.946945 205.079529, 237.758163 202.419434, 238.592926 199.780273, 239.407242 197.191833, 240.074738 194.600464, 240.721603 191.899536, 241.177673 189.338196, 241.588272 186.763306, 241.995285 184.161438, 242.270447 181.554443, 242.541611 178.966003, 244.891205 175.808044, 244.502548 178.367676, 247.053391 177.544495, 247.839767 179.674072, 249.061890 181.756653, 250.587982 181.279785, 251.957809 180.761169, 253.133041 179.998413, 253.407013 181.804443, 254.053574 183.450623, 255.135361 185.105896, 256.441467 186.593079, 258.018921 185.682861, 259.717255 184.842590, 261.313354 183.882446, 262.991943 182.863708, 264.641235 184.244385, 266.644440 185.534424, 269.140442 186.720215, 271.588959 188.075745, 273.739777 187.083069, 276.007477 188.487305, 278.350098 189.673645, 280.608612 190.677795, 282.788055 191.580872, 284.849518 190.405945, 287.026276 189.303833, 289.023102 188.253845, 290.921112 187.022217, 292.693451 187.617676, 294.330444 188.113708, 295.900726 188.540771, 297.717346 189.000793, 299.757446 189.587036, 301.665710 190.031738, 303.521149 190.499512, 305.105591 189.280457, 306.741882 189.673828, 308.378174 189.879028, 309.733948 190.065674, 311.180969 190.210876, 312.839386 190.403625, 314.564667 190.668823, 316.700317 190.823181, 318.873169 191.124817, 320.699677 189.799744, 322.455963 188.407593, 324.167145 188.763489, 325.918640 189.051392, 327.832611 189.322449, 329.899841 189.638611, 331.844513 189.865112, 334.179962 190.159302, 336.714935 190.543640, 339.105225 190.905884, 341.335510 191.176270, 343.319794 189.812927, 345.590790 190.093262, 348.155579 190.451294, 350.846161 190.780945, 353.611816 191.197693, 356.366516 192.002502, 359.246002 192.458496, 362.251312 193.274841, 365.020264 194.185974, 368.045746 194.941589, 371.080383 195.566956, 374.424988 196.588623, 378.497711 197.266174, 382.314087 197.743347, 386.907043 197.876160, 391.048431 198.227722, 393.381744 199.674927, 398.592041 199.079041, 404.092224 197.228394, 408.162598 194.128174, 413.337219 190.455688, 415.406311 186.739380, 417.722748 182.925537, 419.375702 180.001770, 420.697540 176.987000, 422.093384 173.981201, 423.324829 171.111511, 424.617706 168.412354, 425.865051 165.611145, 426.950653 163.411865, 428.011505 161.107300, 429.218536 158.691284, 430.162811 156.382080, 431.258057 154.221802, 432.208405 152.054932, 432.917694 150.111633, 433.589203 148.358032, 434.278412 146.579041, 432.934570 144.965576, 433.574738 143.397156, 434.002991 141.633179, 434.488800 139.971069, 434.988647 138.457947, 435.506653 137.140076, 435.930847 135.953796, 436.195496 134.711609, 436.424377 133.531555, 436.644043 132.462646, 434.882843 131.755859, 432.952972 130.900879, 433.045776 129.897034, 433.072845 129.000854, 433.095825 128.251465, 433.348358 127.493835, 433.385803 126.803650, 433.534851 125.918030, 433.437897 124.879639, 433.504333 123.767517, 431.536224 123.288635, 431.610321 122.032593, 431.680786 120.914368, 431.716034 119.865417, 431.668671 118.786804, 431.615173 117.539978, 431.310333 116.153809, 431.103088 114.431702, 429.008820 113.897461, 427.020966 113.135010, 425.045349 112.351685, 423.039490 111.523621, 423.111572 109.387085, 423.058502 106.904358, 423.108215 104.463013, 423.170593 101.920349, 421.247528 100.484985, 421.517639 97.905518, 421.961304 95.485596, 422.636780 93.089844, 423.506042 90.955688, 422.088715 89.794922, 420.921936 88.677307, 419.655396 87.644592, 418.326813 86.920959, 419.577148 85.605774, 420.751190 84.285522, 422.004700 82.863037, 423.216736 81.331543, 422.029480 80.239990, 420.857208 78.841248, 419.251831 78.372986, 420.919739 76.370605, 422.502289 77.126343, 423.237488 78.712891, 425.909241 78.301392, 428.599213 77.675964, 431.062897 77.006653, 433.635345 76.243347, 436.128693 75.500000, 438.573395 74.738403, 441.069946 73.887634, 443.566589 73.082947, 446.036499 72.252563, 448.570740 71.417114, 450.972595 70.523682, 453.459412 69.777832, 454.601990 70.629089, 457.069641 69.625122, 458.462372 67.830322, 460.809204 66.752747, 463.109467 65.679504, 465.379181 64.491516, 467.627838 63.281067, 469.802429 62.089355, 471.939056 60.828369, 474.076202 59.467590, 476.211914 58.008728, 478.304199 56.581299, 480.375031 55.226501, 481.482605 53.483093, 482.671600 51.402710, 483.756104 49.320312, 485.896240 47.789185, 488.065308 46.304016, 490.138397 44.731689, 491.291901 42.568604, 492.328949 40.455078, 493.343018 38.251831, 494.222168 36.024109, 495.128265 33.705261, 497.067871 32.130493, 499.028351 30.633118, 500.915070 29.126343, 501.792084 26.676208, 502.587128 24.248779, 503.358368 21.794861, 505.359283 20.314453, 507.400696 18.797302, 509.378021 17.319702, 511.330933 15.799194, 512.232788 13.353027, 513.118408 10.940613, 513.991028 8.429565, 515.003418 5.903137, 517.316650 4.644043, 519.486511 3.542725, 521.639160 2.344910, 523.704956 1.032776, 526.225159 0.000000, 526.445618 0.907654, 526.807678 1.637207, 527.243042 2.170776, 527.642151 2.633728, 527.913513 3.092590, 528.265991 3.564758, 528.807739 4.198730, 529.450867 4.936157, 530.238464 5.886780, 531.230713 6.999390, 532.437622 8.347595, 533.705444 9.642029, 534.979614 10.991455, 536.241638 12.483887, 537.493286 13.699829, 538.782227 14.891785, 540.251343 16.241150, 541.887634 17.822510, 543.610840 19.712646, 545.491516 21.589233, 547.457031 23.685974, 549.293213 25.697754, 551.091736 27.742371, 552.808533 29.618408, 554.512329 31.492981, 556.146179 33.296570, 557.840027 34.964478, 559.508545 36.480591, 559.292114 38.615234, 559.251465 40.666626, 560.848694 41.991760, 562.441406 43.140686, 564.042603 44.176208, 565.788452 45.099854, 567.456238 46.022766, 569.283325 46.853516, 571.129761 47.726990, 573.209473 48.716492, 575.427063 49.833496, 577.573242 51.101013, 579.765015 52.375244, 581.893616 53.677368, 583.889038 55.066040, 585.903198 56.318481, 587.868713 57.504211, 589.887268 58.666565, 592.021118 59.881714, 594.067688 61.079285, 596.187988 62.304199, 596.475891 64.627930, 598.325256 65.821716, 600.256287 66.929138, 602.213257 68.077881, 603.984009 69.143188, 605.750671 70.143127, 607.564880 71.060852, 609.331665 71.935730, 611.135498 72.890869, 612.944885 73.604309, 612.720398 75.102295, 612.845154 76.666565, 612.744385 78.046265, 614.489563 79.162170, 616.248047 80.395996, 618.146301 81.734985, 620.014954 83.013367, 621.790588 84.324585, 623.569153 85.627319, 625.277832 86.979797, 624.903503 88.529236, 626.620300 89.926941, 628.429688 91.432129, 630.069214 92.857300, 631.676758 94.445801, 633.340027 96.010803, 634.961731 97.582764, 636.520569 99.110657, 637.910461 100.467041, 639.338928 102.246948, 640.680908 103.898010, 641.894348 105.548706, 643.268860 107.315613, 644.631775 109.179016, 645.957092 111.024353, 647.411194 112.952698, 648.820984 114.912842, 650.339539 116.800659, 651.836792 118.746338, 653.631409 120.928223, 655.568604 123.011353, 657.359680 125.001221, 659.539734 127.318970, 661.295654 129.502197, 664.433289 129.463623, 667.787964 129.665100, 670.728210 129.459229, 672.105652 131.130005, 673.527710 132.922302, 674.819824 134.875488, 676.224548 136.905884, 677.633667 138.915710, 679.032898 140.969971, 680.388733 143.155090, 681.862671 145.453552, 683.234375 148.003479, 684.732178 150.468079, 686.241638 153.071289, 687.731689 155.674377, 689.370300 158.258911, 691.025574 161.201050, 692.602173 163.959412, 694.449524 167.139893, 696.184509 170.332397, 698.215210 173.710022, 700.277222 177.091125, 702.596619 180.781433, 705.097412 184.320496, 707.606079 187.754883, 710.955200 191.622742, 714.032837 194.890381, 717.466064 198.007385, 722.453796 200.929260, 727.725952 203.964111, 734.354126 207.432068, 738.349487 209.692261, 745.378723 213.216064, 752.633423 216.716736, 759.303345 219.703247, 765.378174 221.638977, 768.817261 221.453918, 771.452271 219.709412, 774.267090 217.816101, 777.245605 215.606567, 779.139404 213.399048, 780.238831 210.838257, 780.966675 208.359375, 783.299622 207.998352, 785.735779 207.483337, 788.288513 206.976929, 790.752563 206.537231, 793.473877 205.995850, 796.190674 205.454590, 798.848511 205.002686, 801.582520 204.581299, 804.267212 204.296936, 806.962524 204.004211, 809.501770 203.735474, 811.889465 203.412964, 814.366577 202.994934, 816.859436 202.757019, 819.259460 202.491638, 821.663513 202.179688, 824.011414 201.914307, 826.453308 201.609802, 828.687256 201.298279, 830.939209 200.936951, 833.219055 200.650696, 835.407959 200.263062, 837.528076 199.830200, 839.703247 199.432556, 841.878784 198.952454, 842.878113 196.764160, 843.888916 194.271179, 844.445984 191.646118, 846.309875 191.448608, 848.143860 191.165527, 850.008728 190.893066, 851.834656 190.397949, 853.544434 190.143799, 855.213135 189.960510, 856.928162 189.806641, 858.637573 189.626221, 860.350952 189.369019, 862.072754 189.110901, 863.849976 188.726868, 865.552368 188.387268, 867.254883 188.032227, 869.031433 187.331482, 870.781738 186.686462, 872.506470 185.971069, 874.271057 185.216980, 875.955627 184.456726, 877.598633 183.625244, 879.255981 182.748230, 880.829895 181.752014, 882.053223 182.912048, 883.522705 181.985291, 884.958435 180.970886, 886.405029 179.983765, 887.761108 178.891113, 889.076965 177.691101, 890.328308 176.515076, 891.345642 175.366577, 892.360046 176.435974, 893.385254 177.716064, 894.448608 178.980042, 895.566833 177.970337, 896.713013 176.984009, 897.771973 176.027405, 898.747192 175.021484, 899.759766 174.189819, 900.810242 173.411926, 901.942200 172.704407, 903.295532 172.031738, 904.589478 171.317566, 906.560059 172.777405, 907.815430 172.027710, 909.369202 171.362000, 910.942993 170.430115, 912.596924 169.609497, 914.176514 168.781128, 915.927612 168.005432, 917.795166 167.147522, 920.080444 166.382568, 922.400818 165.643005, 924.756348 164.994812, 927.207581 164.366333, 929.527771 163.868347, 931.860474 163.270935, 934.005127 162.791443, 936.098328 162.387634, 938.220215 162.070496, 940.332642 161.665771, 942.678894 161.473083, 944.916321 161.071655, 946.809631 162.507385, 948.761658 164.060913, 951.628845 164.144897, 954.378601 164.318176, 957.162598 164.483704, 959.897461 164.658203, 962.650146 164.752075, 965.215149 164.773926, 967.972168 164.680359, 970.851501 164.284546, 973.695374 163.770203, 976.440857 163.301392, 979.241882 162.790527, 981.851624 162.199341, 983.934448 161.679016, 985.903931 161.170715, 987.872253 160.762695, 989.917480 160.336121, 991.941528 159.867615, 993.815674 159.337952, 995.630615 158.841370, 997.312317 158.483643, 998.818237 158.263428, 1000.002258 158.027771, 1000.954102 157.949036, 1001.709900 157.986938, 1002.354248 158.122925, 1003.046875 158.211731, 1003.774109 158.280273, 1004.580078 158.340332, 1005.668030 158.433350, 1006.776978 158.315002, 1008.444275 160.516785, 1009.715576 162.761719, 1011.122009 164.631409, 1012.472961 166.444336, 1012.290039 168.351624, 1012.344116 170.223389, 1012.657043 172.073425, 1014.124146 173.745300, 1015.578796 175.487854, 1017.069214 177.270630, 1018.575256 179.135498, 1020.154236 181.060547, 1021.728760 182.917236, 1022.192505 184.929443, 1022.679932 186.740479, 1024.287476 188.683777, 1026.010986 190.773560, 1027.696899 192.808350, 1029.438354 194.796448, 1031.209839 196.934875, 1033.009521 199.135559, 1033.586426 200.796204, 1035.377808 202.820801, 1037.445435 205.208679, 1039.452026 207.526733, 1041.533325 209.972473, 1043.698853 212.471191, 1045.603516 214.763855, 1047.737427 217.298828, 1049.758667 219.720276, 1051.332886 220.182251, 1052.958008 220.793152, 1055.027588 222.865479, 1057.209229 224.849670, 1058.905029 225.088806, 1060.571289 225.262939, 1062.281250 225.347168, 1063.832275 225.499756, 1065.433472 225.588379, 1067.010620 225.648315, 1068.516113 225.664673, 1070.025146 225.653320, 1071.514038 225.609924, 1072.837280 225.478699, 1074.181274 225.299988, 1075.476685 225.081482, 1076.823120 224.919861, 1078.129028 224.684692, 1079.554932 224.335876, 1080.913696 224.001648, 1082.179077 223.580444, 1083.740967 224.770996, 1085.012451 224.279907, 1086.273926 223.911743, 1087.464478 223.595032, 1088.656128 223.268921, 1089.854614 222.915894, 1091.080566 222.553772, 1092.324829 222.160706, 1093.549805 221.737305, 1094.715820 221.264038, 1095.937378 220.849548, 1097.201904 220.361877, 1098.376465 219.852966, 1099.505249 219.385071, 1100.571167 218.874329, 1101.573975 218.250122, 1102.632446 217.686829, 1103.714111 217.084961, 1104.722290 216.438782, 1105.668457 215.699280, 1106.606812 214.925476, 1107.551880 214.196106, 1108.406128 213.375305, 1109.949951 214.412903, 1110.837769 213.595398, 1111.737061 212.794067, 1112.498413 211.858276, 1113.189453 210.904297, 1113.753662 209.889709, 1114.085938 208.816650, 1114.027344 207.650696, 1116.150879 209.755920, 1117.059814 211.602661, 1118.158325 213.590515, 1119.750488 215.866333, 1119.109009 217.166016, 1118.354736 218.466309, 1120.058960 221.767334, 1122.423706 225.830017, 1124.727051 229.981201, 1126.904297 234.404541, 1128.503296 238.359253, 1129.793579 241.947266, 1130.688354 244.997559, 1131.372559 247.715637, 1131.876587 250.296814, 1132.200562 252.805725, 1132.722900 255.031372, 1131.835938 256.006226, 1130.913452 257.247803, 1129.886353 258.294434, 1128.815796 259.288208, 1127.714844 260.360474, 1126.580444 261.281189, 1126.907837 263.817566, 1127.168213 266.298035, 1127.578491 268.472961, 1126.643555 269.396545, 1125.553223 270.148071, 1124.467529 271.100159, 1123.365112 272.057251, 1123.641602 274.692078, 1123.948853 277.456787, 1124.328491 280.168945, 1124.575317 282.753967, 1124.907227 285.590332, 1125.190186 288.168030, 1125.360229 290.695557, 1125.415894 293.091797, 1125.337402 295.456604, 1125.282837 297.524170, 1125.251587 299.612366, 1125.259155 301.650085, 1125.273438 303.850647, 1125.231323 306.030273, 1124.959595 308.054382, 1124.631104 310.104919, 1124.290039 312.265869, 1123.944092 314.386108, 1123.492920 316.489990, 1124.601440 318.666199, 1125.742676 320.797363, 1125.335205 322.749512, 1124.974487 324.682861, 1124.684448 326.686096, 1124.351685 328.701721, 1124.055054 330.549866, 1123.790649 332.440857, 1123.442871 334.263916, 1123.236938 336.319031, 1124.390747 338.686768, 1125.504395 341.070679, 1126.768677 343.583130, 1127.772339 346.088440, 1128.883667 348.708496, 1129.844604 351.270325, 1130.840332 354.189819, 1131.735718 356.903259, 1131.267456 359.189148, 1131.095947 362.085999, 1130.693970 364.671753, 1131.500854 368.194519, 1132.065063 371.782410, 1132.744751 375.582397, 1133.427734 379.472473, 1133.901978 382.643250, 1134.000366 385.668335, 1134.280518 389.079712, 1134.413208 392.043640, 1134.513550 394.937195, 1134.380005 397.786133, 1134.362305 400.922485, 1133.899658 403.720154, 1133.701050 406.722961, 1132.334473 408.010742, 1131.952637 410.904907, 1131.408081 413.596436, 1131.034546 416.441040, 1130.588257 419.831177, 1130.217896 422.721008, 1129.757568 425.971802, 1129.411987 428.654053, 1129.172852 431.555420, 1128.858032 434.603394, 1128.634766 437.778015, 1128.399536 441.209534, 1128.070557 444.482178, 1127.939209 448.125122, 1126.460815 448.754700, 1126.052246 452.369690, 1125.844604 455.756653, 1125.561646 459.341125, 1125.331665 462.461975, 1125.248779 465.518066, 1126.409180 468.208069, 1126.110840 470.929260, 1125.839722 473.871155, 1125.389038 476.633972, 1125.134277 479.483032, 1124.915771 482.024902, 1124.654785 484.635498, 1124.219604 487.462830, 1123.794922 490.513672, 1123.288696 493.299683, 1125.016968 496.667969, 1124.410767 499.738831, 1124.062622 502.675842, 1123.801758 505.485291, 1123.356812 508.040833, 1122.710449 510.708557, 1121.781738 513.476379, 1120.802490 516.110779, 1121.999268 520.154419, 1120.768433 523.298340, 1119.494507 526.379761, 1118.264404 529.317932, 1116.685913 532.365601, 1114.979736 535.370972, 1113.005493 538.681824, 1110.854736 542.122498, 1108.934570 545.404358, 1106.412109 549.486328, 1104.276123 553.204590, 1102.546143 557.233643, 1101.234131 561.613892, 1100.442383 566.111816, 1101.036743 572.645752, 1103.109131 578.190552, 1105.372070 580.523132, 1108.881714 583.931519, 1112.140869 586.890503, 1116.187988 590.115112, 1119.837280 592.861206, 1123.343262 595.355591, 1127.185669 597.868896, 1130.414917 599.877075, 1133.607422 601.843750, 1136.933105 604.216980, 1139.944092 606.270508, 1142.413208 608.305298, 1145.142456 610.534912, 1147.574341 612.952148, 1151.167480 614.226318, 1153.470093 616.489502, 1155.410156 618.654663, 1156.988281 620.487366, 1158.798218 622.507812, 1160.572021 624.643188, 1162.271484 627.093994, 1163.925781 629.607056, 1167.031250 631.483582, 1169.086548 634.160400, 1170.499512 636.435974, 1172.063721 638.966309, 1173.595947 641.298828, 1175.026978 643.410034, 1176.468140 645.542969, 1177.728027 647.827515, 1179.278931 650.373840, 1180.566162 652.687805, 1182.612549 653.817017, 1183.986084 655.949829, 1185.275879 658.063599, 1186.453979 659.915527, 1185.736938 661.101013, 1187.138916 663.311035, 1188.611938 665.790344, 1189.927856 668.076782, 1191.177002 670.187256, 1192.661499 672.500610, 1193.877319 674.575684, 1195.155396 676.673706, 1196.083984 678.613708, 1196.808228 680.692505, 1197.614136 682.559448, 1198.428223 684.469604, 1199.126709 686.280640, 1199.611816 687.991089, 1198.079224 689.287964, 1198.479614 691.174011, 1198.889038 693.010254, 1199.286865 694.833984, 1199.814087 696.610535, 1200.321045 698.365234, 1200.789551 700.210693, 1201.214478 702.057495, 1201.688110 704.031128, 1202.188599 705.872925, 1202.689697 707.777222, 1203.151245 709.823975, 1203.447998 712.112549, 1203.769897 714.588501, 1202.809814 716.759216, 1202.096558 719.171021, 1201.487061 721.439331, 1202.220093 724.305908, 1203.013550 727.261841, 1203.660034 729.817627, 1204.351440 732.472168, 1204.969238 735.253418, 1205.544434 737.767212, 1206.161743 740.445007, 1206.836060 742.987427, 1206.360474 744.954468, 1205.923706 747.203430, 1205.456665 749.489685, 1204.995972 751.831909, 1204.493164 754.093384, 1203.731934 756.726562, 1203.018677 759.159851, 1202.241821 761.687378, 1202.362915 764.603699, 1202.487183 767.439392, 1201.572876 770.007324, 1200.456665 772.389282, 1199.157837 774.625000, 1197.909790 777.033997, 1196.320312 779.109863, 1194.783813 781.055908, 1193.240967 782.985962, 1191.741089 784.827209, 1190.259277 786.555237, 1188.559204 788.190857, 1186.712158 789.892090, 1184.874512 791.601013, 1182.976685 793.332153, 1181.010376 795.033569, 1179.112915 796.686279Z M2219.197510 365.092285 L2219.162598 361.658386, 2219.131348 358.706848, 2217.518799 356.946106, 2216.020264 355.193970, 2215.901855 352.322693, 2215.831055 349.304993, 2214.231689 347.591003, 2212.419189 345.655457, 2210.821289 343.931641, 2210.355469 340.949951, 2210.048828 338.000854, 2209.704346 335.017151, 2209.561035 332.151245, 2209.516846 329.172729, 2209.469727 326.307007, 2209.534668 323.505432, 2211.426270 321.988525, 2211.704346 319.203735, 2212.028809 316.419006, 2212.298340 313.702393, 2212.666748 310.971130, 2213.022461 308.229492, 2213.452393 305.594666, 2213.813477 302.927979, 2214.110352 300.339233, 2214.312012 297.686340, 2214.553955 295.077087, 2214.648438 292.722717, 2214.805664 290.435730, 2214.292725 287.557373, 2212.560059 286.797424, 2210.611084 285.999573, 2208.515625 285.004150, 2207.260254 286.671997, 2205.275391 288.062622, 2203.728760 289.338257, 2202.632568 288.426941, 2201.675293 287.420166, 2201.005859 286.424133, 2200.175537 285.340393, 2199.267578 284.199402, 2198.153320 282.987061, 2196.880371 281.662781, 2195.549561 280.366638, 2193.989502 278.763123, 2192.539307 279.593567, 2190.465820 280.211670, 2188.191162 280.965210, 2185.748047 281.654236, 2183.295654 282.288025, 2180.780029 282.933167, 2178.303467 283.499695, 2175.855469 284.172852, 2173.714844 282.445007, 2171.567627 280.706787, 2169.588135 279.042175, 2167.437012 277.281982, 2165.641357 278.009338, 2163.512207 278.723877, 2161.434570 279.449890, 2159.456543 280.187683, 2157.579590 280.923035, 2155.730957 281.633789, 2153.904297 280.010864, 2152.035156 280.761169, 2150.148193 281.383728, 2148.192627 281.878601, 2146.452881 282.469849, 2145.023682 280.948853, 2143.699951 279.349121, 2142.544189 278.219360, 2141.445068 277.086975, 2140.383789 275.930054, 2139.215088 277.178833, 2137.567139 278.237000, 2135.780029 279.330994, 2134.003662 280.105347, 2132.791260 278.983215, 2131.400391 277.944580, 2130.239746 276.897339, 2128.966309 275.848999, 2127.278076 276.936646, 2124.906738 277.934143, 2122.400879 278.609497, 2119.957275 279.162109, 2117.258789 279.728699, 2115.022949 278.550659, 2112.614014 277.341614, 2110.222656 276.328003, 2107.803955 275.111633, 2105.608643 274.019226, 2103.410645 272.760864, 2101.516357 271.430786, 2100.019043 272.089844, 2098.019531 272.613464, 2095.939209 272.978821, 2094.316406 271.746643, 2092.077393 270.305054, 2090.354980 268.915955, 2088.477295 267.678406, 2086.591064 268.250549, 2084.113770 268.859436, 2081.919189 269.529236, 2080.078369 268.371948, 2078.069092 267.359619, 2076.008789 266.471619, 2073.603271 267.398254, 2070.884033 268.354553, 2068.141357 269.380432, 2065.722168 268.504883, 2063.007812 267.718750, 2060.369141 266.741394, 2057.515137 267.944946, 2054.201172 268.922302, 2050.718994 269.949951, 2046.910522 270.923462, 2043.586670 271.760132, 2040.244751 270.836304, 2035.650146 269.933105, 2031.738037 270.974121, 2028.613037 271.885925, 2025.661133 272.768311, 2021.505371 272.076111, 2017.590088 271.274292, 2013.579712 270.372620, 2010.156006 269.353455, 2005.810547 270.028564, 2001.646484 270.212891, 1997.549683 270.701477, 1993.117065 270.702332, 1988.030273 269.414612, 1982.132324 266.407471, 1976.804932 262.573059, 1971.920044 258.832336, 1966.934814 254.822815, 1962.993164 251.623962, 1959.970337 248.839111, 1958.901367 246.042542, 1957.830811 242.835266, 1957.064697 239.881531, 1956.485840 236.827881, 1954.251465 234.827454, 1952.009766 232.779175, 1949.869263 230.386597, 1949.686768 227.705078, 1949.744385 224.872070, 1947.434570 222.469360, 1945.225952 220.474854, 1942.807495 218.271667, 1940.526733 216.056519, 1938.134399 213.882568, 1938.110718 211.510803, 1937.997314 209.128906, 1938.144165 207.054810, 1936.070801 205.303833, 1934.062134 203.537659, 1932.137573 201.930420, 1932.087402 200.021545, 1931.997437 197.999329, 1932.090698 196.354065, 1930.194092 195.203918, 1928.205322 193.992188, 1926.276245 192.923950, 1926.268921 191.254333, 1926.359985 189.472778, 1926.598389 187.827637, 1927.180786 186.517517, 1925.639038 185.943420, 1924.118896 185.131409, 1922.464478 184.268860, 1922.920654 182.993958, 1923.493286 181.508240, 1924.141846 180.036987, 1924.760132 178.270752, 1925.408203 176.547302, 1926.010620 174.862122, 1926.754639 173.412720, 1925.086060 171.877319, 1923.391968 170.705261, 1921.564941 169.664368, 1919.730469 168.900940, 1917.882568 168.171204, 1918.416626 166.866394, 1918.905518 165.512024, 1919.516479 164.629517, 1920.437988 164.043701, 1918.930420 163.985229, 1916.726929 164.118469, 1914.572266 163.750549, 1912.912720 162.913818, 1913.730225 162.146301, 1914.867554 161.294861, 1916.480835 161.000488, 1918.622437 160.979004, 1920.330200 160.755493, 1919.530396 159.515869, 1919.160156 157.975098, 1918.794189 156.182129, 1918.339966 154.285583, 1920.403442 153.196350, 1919.831787 151.618286, 1919.404541 150.035400, 1918.986694 148.472046, 1918.485352 146.720520, 1918.038574 144.856873, 1917.585571 142.807434, 1919.826538 141.293396, 1921.865356 139.674377, 1923.786133 137.989380, 1925.698364 136.183228, 1925.053101 133.855408, 1924.475952 131.438904, 1923.837036 128.924377, 1923.125732 126.422974, 1922.264648 124.129150, 1921.383789 122.065613, 1920.564453 119.967834, 1919.811401 117.899658, 1921.316040 116.650940, 1922.680298 115.310669, 1924.077026 114.131287, 1925.354492 113.079468, 1926.500488 112.127075, 1927.546631 111.326477, 1928.597656 110.692383, 1929.677734 110.065063, 1930.871948 109.375488, 1929.592407 107.962891, 1928.531372 106.058899, 1927.605469 104.203979, 1928.894653 102.471375, 1930.046509 100.324524, 1931.301147 98.758545, 1928.549194 98.307861, 1926.374390 98.309814, 1924.035522 98.159119, 1921.655884 97.869446, 1920.383301 95.886658, 1918.977295 94.184021, 1916.499390 93.953125, 1914.130859 93.820496, 1911.922485 93.741699, 1909.693604 93.654541, 1907.338379 93.572083, 1905.153442 93.471924, 1903.977051 91.618103, 1902.928467 89.733459, 1902.066528 87.928223, 1901.308105 86.161072, 1899.256470 85.735046, 1897.086914 85.156250, 1894.892212 84.482483, 1892.508057 83.531738, 1890.265015 82.422546, 1888.086548 81.175171, 1885.882446 79.900513, 1885.047485 77.447388, 1883.055054 76.182495, 1880.989380 74.782288, 1879.026001 73.253174, 1877.007446 71.776306, 1874.934692 70.172852, 1872.895752 68.638855, 1872.322876 66.327209, 1871.665405 63.884521, 1871.022705 61.342651, 1870.299072 58.804382, 1869.595825 56.263428, 1867.353271 54.907959, 1865.113770 53.502136, 1862.882568 52.071716, 1860.577393 50.694763, 1859.806519 48.114319, 1858.983887 45.446777, 1858.223511 42.725586, 1855.752197 41.351501, 1853.314331 39.968811, 1850.914185 38.736206, 1848.495728 37.571777, 1847.464233 35.155334, 1846.186646 32.630554, 1845.187988 30.284912, 1844.323486 27.833923, 1841.607422 25.539368, 1840.612305 27.084167, 1839.819580 28.464417, 1838.802734 29.630676, 1837.976318 30.664307, 1839.472778 32.721191, 1838.629761 33.586243, 1837.918457 34.270813, 1837.387329 34.852844, 1837.024902 35.443176, 1836.715698 36.040894, 1836.154907 36.688232, 1835.445923 37.523193, 1834.552002 38.631836, 1833.410767 39.874573, 1832.082153 41.216553, 1830.796875 42.688477, 1829.541382 44.147583, 1828.376099 45.596375, 1827.285522 46.875732, 1825.928101 48.205261, 1824.443726 49.541565, 1822.748657 50.871033, 1821.009155 52.383179, 1818.418945 51.480469, 1815.646973 50.795349, 1814.400879 52.222778, 1812.844482 53.626709, 1811.321167 54.918640, 1809.890015 56.072021, 1808.562256 57.054077, 1807.325073 58.063904, 1806.120605 58.974365, 1804.959106 59.899475, 1803.774292 60.783447, 1802.509277 61.800659, 1801.079956 62.973694, 1799.592285 64.184326, 1797.921143 65.509705, 1796.135254 67.043457, 1795.512695 70.489807, 1793.706543 72.296326, 1792.143677 74.021301, 1790.646362 75.795654, 1789.307373 77.609680, 1788.128662 79.005493, 1786.907593 80.328735, 1785.538086 82.038147, 1783.987183 83.840332, 1782.240723 85.855530, 1780.235474 88.223145, 1778.313477 90.668091, 1776.508545 93.086975, 1774.895874 95.340027, 1773.308960 97.560242, 1771.849243 99.455566, 1770.349487 101.447998, 1768.919189 103.406616, 1768.867065 106.361206, 1768.886597 108.904236, 1767.664551 110.351501, 1766.454346 111.884949, 1765.315430 113.199829, 1763.956665 114.525452, 1762.433350 115.810913, 1760.953003 117.078796, 1759.559326 118.100952, 1757.996948 119.191101, 1756.393555 120.340027, 1754.866089 121.330139, 1753.411621 122.364807, 1751.849609 123.465454, 1750.336670 124.672180, 1748.826294 125.815735, 1747.393188 126.815857, 1747.741699 128.509094, 1748.147217 130.165039, 1746.682861 131.464905, 1745.130615 132.963318, 1743.666260 134.299316, 1742.315796 135.807068, 1740.968018 137.306824, 1739.626221 138.814392, 1738.278931 140.326294, 1737.020508 141.802551, 1735.680054 143.340942, 1734.291992 144.847778, 1732.865967 146.279297, 1733.362671 148.210327, 1731.830200 149.864197, 1730.303711 151.521851, 1728.799561 152.986023, 1727.310303 154.578247, 1725.695312 156.078796, 1725.812134 158.098450, 1724.080078 159.486023, 1724.108765 161.333679, 1722.386963 162.886292, 1720.632446 164.409790, 1718.836182 165.839172, 1716.977905 167.528809, 1715.197510 168.999451, 1715.083984 171.039185, 1714.741089 173.154968, 1712.837402 174.530212, 1710.636963 176.341553, 1708.471558 177.865234, 1706.488892 179.552490, 1704.522339 181.055847, 1702.544312 182.575806, 1700.739014 184.062012, 1698.748169 185.739868, 1696.749878 187.164429, 1696.663696 189.388123, 1696.466797 191.524109, 1694.266602 193.211975, 1692.155884 195.098999, 1689.901855 196.847900, 1687.805176 198.367249, 1685.499268 200.405457, 1683.050659 202.328430, 1680.564209 204.235901, 1678.116943 206.266846, 1677.637451 208.658020, 1677.345581 210.727722, 1674.079346 213.277893, 1670.852051 215.870789, 1667.227783 219.219238, 1663.612671 222.297119, 1659.252808 225.731934, 1654.687866 229.015991, 1650.419434 231.820923, 1643.235962 236.015564, 1638.279541 238.613770, 1632.451538 241.680969, 1625.731445 243.968323, 1618.391846 245.559326, 1614.606567 245.033447, 1608.674316 245.377441, 1603.039917 245.185547, 1599.567139 244.756104, 1593.836182 243.961243, 1589.671875 243.199280, 1585.952515 242.244385, 1582.969849 241.542297, 1579.854736 240.546326, 1576.755127 241.198425, 1574.568726 241.807373, 1571.428467 240.901367, 1568.687866 240.064819, 1565.780396 239.303345, 1563.150269 238.404968, 1560.417603 237.510376, 1558.242065 236.708313, 1555.943481 235.880615, 1553.773926 235.007690, 1551.571777 235.757263, 1549.747314 236.493713, 1547.598877 235.611572, 1545.387451 234.725159, 1543.284912 233.924805, 1541.173584 233.046265, 1539.149170 232.212891, 1537.230713 231.245361, 1535.306274 230.379211, 1533.580200 229.398560, 1531.993408 228.157776, 1530.431030 229.276611, 1528.906494 230.289734, 1527.117188 229.329529, 1525.320923 228.384460, 1523.565552 227.529053, 1521.800537 226.721619, 1520.032104 225.807129, 1518.360596 226.880310, 1516.692139 225.993225, 1515.002441 227.008667, 1513.192993 226.174683, 1511.322144 225.403625, 1509.454468 224.635376, 1507.535645 223.816162, 1505.567993 222.979004, 1503.698730 223.867188, 1501.773193 222.964966, 1499.876709 222.084534, 1498.074097 221.148254, 1496.251953 220.129700, 1494.372437 219.244934, 1492.612915 218.369812, 1490.832642 217.408447, 1489.084961 216.472473, 1487.364136 215.540771, 1485.722656 214.506226, 1484.139648 213.488098, 1482.522217 214.356201, 1481.122925 215.304688, 1479.541748 214.275513, 1477.974121 213.335693, 1476.482300 212.353577, 1475.011108 211.380371, 1473.575317 210.443176, 1472.159424 209.564331, 1470.782593 208.735657, 1469.380371 207.905823, 1467.980347 207.180908, 1466.665771 206.401367, 1465.363770 205.682800, 1463.949463 205.084900, 1462.515747 204.703003, 1460.978882 204.374878, 1459.347778 204.238281, 1457.155396 205.978760, 1454.874023 207.978394, 1452.641602 207.916504, 1450.444214 207.745117, 1448.058228 207.699158, 1445.462524 207.576355, 1442.881348 207.554138, 1440.271362 207.522522, 1437.587280 207.498718, 1434.910278 207.499329, 1432.599243 207.498596, 1430.553345 207.594971, 1428.546997 207.688782, 1426.752197 207.871155, 1424.736084 207.900757, 1422.466064 208.014893, 1419.757690 208.183472, 1416.909058 208.396667, 1414.101562 208.475708, 1410.903809 210.281494, 1408.271484 210.347839, 1405.666626 210.325012, 1403.182373 210.278748, 1400.782349 210.233643, 1398.774292 210.286438, 1396.579102 210.251587, 1394.507080 210.193542, 1392.617920 210.202637, 1390.644897 210.037964, 1388.517456 209.742798, 1386.219604 209.368958, 1383.771118 208.909912, 1381.097900 208.376709, 1378.667725 207.880005, 1376.231445 207.282410, 1373.753418 206.647522, 1371.991821 204.158752, 1370.742554 201.505432, 1368.466431 200.907043, 1366.158203 200.401489, 1364.074829 200.016785, 1362.181763 199.718262, 1360.249878 199.454102, 1358.287598 199.091492, 1356.217651 198.706238, 1354.145996 198.333008, 1352.388062 197.960815, 1350.843262 197.711182, 1349.608398 197.507080, 1348.734253 197.392395, 1347.975098 197.423279, 1347.262207 197.530029, 1346.451294 197.566711, 1345.566162 197.520142, 1344.144409 199.599304, 1342.984131 199.504883, 1341.557617 199.358032, 1340.045044 199.011475, 1338.520142 198.459106, 1336.726196 197.830566, 1336.437134 200.697632, 1337.069214 203.062439, 1337.485718 205.404541, 1336.102295 207.393555, 1334.727539 209.286377, 1333.341675 211.215210, 1333.528564 213.610596, 1333.516602 215.903992, 1332.128296 217.886902, 1330.759766 219.991455, 1329.341797 222.108643, 1327.972290 224.139465, 1326.576050 226.224854, 1325.982666 228.494385, 1325.278931 230.541809, 1323.685791 232.673645, 1321.846558 234.843140, 1319.870483 237.169373, 1317.922363 239.529053, 1315.818359 241.883484, 1314.297241 242.365906, 1312.781250 242.872864, 1311.446289 243.350769, 1309.997437 243.908752, 1308.489624 244.490417, 1306.883789 245.010620, 1305.357056 245.475464, 1303.843750 245.814636, 1302.429321 246.055664, 1300.883789 247.942078, 1299.425415 249.703857, 1297.954590 250.046082, 1296.481567 250.378845, 1295.003906 250.682983, 1293.407837 250.835815, 1291.892822 251.072021, 1290.482788 251.230164, 1289.000244 251.303528, 1287.650024 251.339966, 1286.243896 251.214294, 1284.751709 251.231873, 1283.333862 251.104004, 1282.182129 250.824524, 1281.003174 253.077454, 1280.102173 255.124695, 1278.726807 257.091736, 1277.148926 259.152832, 1275.794678 259.174622, 1274.529175 259.076721, 1273.277466 258.873474, 1272.086060 258.790344, 1270.843628 258.565002, 1269.694458 258.408813, 1268.517456 258.157227, 1267.344849 257.887451, 1266.121338 257.621033, 1265.806396 255.324402, 1264.604736 254.991394, 1263.411743 254.652466, 1262.266846 254.354492, 1261.068359 254.080811, 1259.925781 253.687256, 1258.814331 253.196106, 1257.645508 252.788574, 1256.454712 252.228821, 1255.307739 251.648804, 1254.340942 253.015869, 1253.092773 252.372925, 1251.846680 251.723694, 1250.658813 251.040222, 1249.412598 250.270569, 1248.094238 249.656494, 1246.763062 249.016235, 1245.392578 248.388184, 1244.146118 247.755920, 1243.036499 247.498413, 1241.879028 247.234375, 1240.763306 247.114075, 1239.630859 246.840210, 1238.464233 246.524536, 1237.291138 246.282959, 1236.098022 245.985962, 1234.930908 245.596497, 1233.691650 245.107910, 1232.338135 244.641663, 1231.011719 244.225525, 1229.684570 243.803528, 1228.405029 243.220215, 1227.204346 242.714966, 1226.144409 242.176208, 1225.212280 241.660950, 1224.247803 241.300964, 1223.637085 244.308044, 1222.643311 246.896729, 1221.571045 249.226746, 1221.831787 251.616455, 1222.280884 253.949768, 1222.460693 256.327515, 1222.548584 259.127014, 1222.387207 262.562561, 1222.081421 266.433899, 1221.992920 270.539673, 1222.142090 274.634277, 1222.440063 278.580078, 1221.665161 282.067749, 1221.042114 285.292725, 1220.560547 288.226135, 1221.332520 291.004578, 1222.087036 293.664429, 1222.850952 296.124512, 1223.709473 298.614319, 1224.468628 300.955872, 1225.210083 303.191650, 1224.621948 305.305115, 1224.069702 307.430725, 1224.427368 309.844666, 1224.851807 312.349548, 1225.299805 314.846375, 1225.798340 317.261414, 1226.427246 319.496765, 1227.117920 321.309143, 1226.507202 323.308960, 1225.909058 325.261169, 1226.734375 326.940552, 1227.575562 328.387817, 1228.378662 329.722351, 1229.410400 331.119324, 1230.506836 332.358337, 1230.235718 334.243713, 1230.026367 336.269775, 1231.209351 337.498535, 1231.173584 339.587769, 1231.097290 341.784668, 1231.121216 344.065735, 1231.350708 346.554504, 1231.474609 348.785339, 1232.946899 349.643921, 1234.478516 350.390625, 1236.033203 351.131348, 1236.300293 353.059204, 1236.257324 355.040466, 1235.987549 356.876465, 1235.650635 358.685425, 1235.257202 360.552917, 1234.914062 362.533569, 1234.511230 364.545044, 1232.955444 366.090515, 1232.650635 368.258362, 1232.212402 370.583618, 1231.832031 373.045349, 1231.338745 375.200378, 1232.512695 375.989990, 1233.652832 376.733643, 1234.614258 377.704468, 1235.625610 378.693115, 1236.540771 379.900818, 1236.142944 382.911011, 1235.855469 386.121887, 1235.538696 389.487183, 1234.151611 392.147461, 1233.762451 396.252563, 1233.406128 400.264099, 1233.064697 404.381409, 1233.310303 409.107361, 1233.320679 413.474915, 1232.177124 416.823975, 1231.052368 420.709900, 1231.255859 424.679321, 1231.568115 428.321960, 1232.058716 431.631226, 1232.480225 435.144836, 1232.853760 438.109192, 1231.739136 441.997437, 1230.734863 446.429932, 1231.244263 449.115479, 1231.793213 451.503113, 1230.567993 454.956604, 1229.467041 458.200928, 1230.163696 460.331665, 1229.037354 463.172607, 1229.651489 465.203186, 1230.565674 467.110657, 1231.361084 469.171082, 1232.334229 471.180969, 1233.320923 473.226990, 1232.709106 476.594238, 1233.794189 478.645081, 1235.243530 480.721069, 1236.686523 483.052673, 1237.991821 485.353394, 1237.837769 488.410828, 1237.614380 491.850159, 1237.774536 495.524780, 1239.271729 497.726379, 1240.882324 500.531189, 1242.167847 503.293457, 1243.318604 505.760925, 1243.137695 508.573425, 1242.894409 511.925903, 1243.875732 514.344971, 1244.709595 516.509583, 1245.621216 519.008728, 1246.601562 521.346680, 1247.514282 523.350952, 1247.247925 526.980957, 1246.824341 530.691650, 1246.358398 534.398560, 1247.319092 536.238647, 1248.621704 538.631714, 1250.069702 540.895203, 1249.990234 544.917725, 1249.250854 548.150269, 1248.144409 551.278564, 1249.672729 553.144897, 1251.457153 555.392578, 1253.572021 557.856812, 1255.758423 560.649902, 1258.348389 563.583130, 1260.703247 566.761230, 1263.295410 570.395264, 1265.717407 574.137024, 1267.690308 577.364868, 1269.714722 581.485718, 1271.066040 583.896912, 1271.906128 589.669128, 1272.532715 597.286743, 1272.494385 606.304871, 1273.090698 613.094727, 1272.479980 619.811951, 1270.541992 623.771973, 1266.976440 626.102173, 1263.537109 629.099487, 1260.190308 632.227722, 1258.804932 635.691101, 1257.059692 638.921631, 1255.171265 642.392761, 1253.681274 646.353699, 1251.905762 650.166016, 1249.813599 654.518799, 1247.829712 658.943481, 1246.016846 663.292603, 1244.759766 667.222656, 1243.560303 670.508057, 1242.458252 674.143555, 1240.097168 676.961365, 1237.727783 679.732117, 1235.386719 683.048340, 1234.789917 686.053711, 1234.075073 688.849243, 1233.532104 691.238281, 1230.863281 694.726196, 1228.516357 697.477661, 1226.441650 699.858215, 1225.929565 702.244507, 1225.467773 704.531738, 1225.215698 706.440491, 1224.729370 708.619019, 1224.295166 710.489014, 1222.409790 712.419006, 1220.265991 715.094238, 1219.473267 718.225159, 1218.880615 720.976929, 1217.990479 723.979370, 1217.368774 726.894653, 1215.371094 729.369629, 1213.265503 732.236023, 1211.167847 734.391724, 1211.110229 736.660828, 1211.197876 739.219604, 1211.218994 741.708374, 1211.517456 744.134155, 1209.943115 746.719666, 1210.213989 749.441895, 1210.499146 751.788086, 1210.963745 754.250610, 1211.485107 756.348633, 1211.826904 758.732971, 1210.569580 761.797852, 1211.122803 763.642334, 1209.993164 766.485840, 1208.404053 768.995117, 1209.232178 770.503113, 1210.045532 772.184937, 1208.537109 774.469360, 1206.836060 776.754700, 1207.670044 778.485352, 1208.419312 780.049194, 1209.363892 781.744202, 1210.293945 783.419922, 1211.333496 785.386047, 1210.361816 787.564636, 1209.305054 789.693298, 1210.650513 791.915771, 1211.622314 794.089417, 1212.282471 796.497070, 1212.913696 798.789734, 1213.238037 801.365967, 1212.003296 803.101196, 1212.391968 805.658752, 1213.687012 806.554626, 1214.805908 807.519653, 1215.917969 808.937988, 1216.982544 810.405579, 1218.029785 811.612671, 1218.425049 815.276794, 1218.883911 818.823364, 1219.398315 822.490906, 1219.976074 826.366150, 1220.374512 829.670715, 1220.887695 832.893555, 1220.421143 835.733215, 1220.977661 838.470703, 1221.676514 841.345337, 1222.310303 843.985229, 1223.019531 846.766235, 1223.948853 849.316895, 1225.401733 850.080688, 1227.131714 851.022095, 1228.731567 851.605103, 1230.050049 854.303894, 1231.279785 856.942627, 1232.630127 859.264221, 1233.928955 861.613159, 1235.380493 863.789612, 1237.115723 863.981445, 1238.530029 865.890442, 1239.962036 867.480042, 1241.590088 867.540405, 1243.510132 867.628052, 1245.466797 867.799744, 1247.759033 868.140015, 1250.204712 868.651489, 1251.851807 870.212524, 1253.754883 871.765137, 1256.399658 872.360474, 1259.300781 873.047852, 1262.303589 873.805664, 1265.459839 874.752014, 1268.474365 875.548279, 1271.474854 876.365540, 1273.590698 877.855835, 1275.670288 879.347717, 1278.606323 880.261230, 1281.635376 881.276489, 1284.620605 882.334167, 1288.042847 883.658997, 1291.388062 884.893433, 1294.819458 886.131775, 1297.700317 888.033203, 1300.501831 890.084534, 1303.301025 892.355408, 1307.124512 894.087891, 1310.833130 895.871826, 1314.423950 897.815247, 1317.664062 899.815796, 1320.368896 901.583923, 1322.601318 903.237488, 1324.336914 904.640930, 1325.857544 906.117676, 1327.036133 907.978943, 1326.777466 910.645447, 1326.731201 913.593933, 1328.421509 916.250183, 1329.215576 915.767883, 1330.149292 915.288513, 1331.225342 914.719604, 1332.524292 914.198120, 1333.812744 913.481140, 1335.171021 916.552246, 1336.984253 919.846130, 1337.763550 919.027283, 1338.869873 918.316833, 1340.063965 917.419373, 1341.432495 916.500671, 1342.993896 915.581665, 1344.564087 914.761292, 1346.448975 914.348511, 1348.078125 913.795837, 1349.224609 916.849548, 1350.475464 920.257385, 1351.490112 923.604553, 1352.619629 922.543762, 1354.374146 921.656006, 1356.311768 920.567444, 1358.636475 919.654724, 1360.974731 919.132874, 1362.839355 918.606995, 1364.495361 921.429626, 1366.215698 924.847778, 1367.310547 928.725769, 1368.552246 932.246704, 1370.008667 930.839172, 1372.041016 929.684875, 1374.147461 928.716675, 1376.616577 927.762756, 1378.981445 927.050903, 1381.700806 926.574402, 1384.425171 926.088867, 1386.311523 928.768372, 1388.848145 932.301025, 1390.650513 935.210938, 1392.118530 938.151611, 1393.703125 941.002930, 1394.873779 943.596680, 1395.779663 945.676880, 1398.753296 944.002258, 1401.575073 942.786865, 1403.012085 945.063416, 1404.592163 947.457092, 1405.807861 949.542969, 1406.855713 951.553467, 1407.990723 953.759155, 1410.496826 952.158264, 1413.559448 950.686218, 1416.670898 949.174988, 1419.771851 948.024902, 1423.005615 946.790161, 1426.615845 945.944336, 1429.955078 944.999084, 1431.848999 946.709412, 1434.046021 948.515076, 1436.038818 950.412048, 1437.692993 952.030090, 1439.290405 953.774902, 1440.954346 955.289673, 1442.406738 956.874084, 1443.796509 958.623901, 1444.976562 960.471619, 1446.240112 961.915833, 1447.672974 963.500305, 1450.932495 961.739990, 1452.226685 963.252441, 1453.572510 964.815735, 1454.901489 966.239746, 1456.011475 967.791138, 1457.273804 969.163940, 1460.626587 967.555176, 1464.005127 966.088440, 1467.813721 964.682434, 1471.686523 963.690674, 1475.628662 962.731873, 1477.322754 964.309692, 1478.901733 965.977844, 1480.239868 967.688843, 1481.755737 969.321167, 1483.507690 970.996948, 1488.213257 970.104553, 1492.978149 969.168274, 1494.788574 970.657776, 1496.571167 972.390381, 1498.710083 973.983826, 1500.456543 975.832336, 1505.500977 974.616577, 1510.598877 973.227722, 1514.288452 972.416199, 1518.218506 971.781738, 1522.015625 970.610962, 1524.517578 971.383911, 1527.446899 972.335754, 1529.951050 973.013794, 1532.340210 974.106812, 1534.351196 974.861877, 1536.042847 975.512207, 1537.396484 976.041382, 1538.369507 976.582153, 1540.646240 974.314636, 1541.788086 975.190491, 1540.880981 978.483398, 1541.349487 979.353271, 1541.871338 979.906494, 1542.620117 980.475891, 1543.436523 981.287292, 1544.096191 982.440186, 1544.678345 983.740662, 1545.559570 984.916138, 1546.481079 986.267029, 1544.830688 989.018433, 1545.865967 990.413269, 1546.921143 991.650330, 1548.003296 992.770203, 1549.222168 993.841064, 1550.590576 994.970337, 1551.879150 996.067566, 1553.236694 997.023804, 1554.809570 998.011719, 1557.323120 997.081238, 1560.239502 996.246582, 1561.453491 997.327148, 1562.609009 998.460632, 1565.573730 997.679321, 1567.954346 995.504089, 1570.708374 993.169739, 1574.382080 992.070923, 1578.126465 990.737915, 1582.036499 989.231812, 1585.738403 987.664246, 1589.397583 985.993530, 1592.732178 984.527466, 1596.066650 983.526184, 1599.183838 982.765137, 1601.833374 979.347595, 1604.955078 975.469849, 1607.992798 975.005249, 1610.970215 974.619507, 1614.183960 973.903503, 1617.391113 973.408142, 1620.561401 973.059326, 1622.219604 969.864868, 1623.824463 966.610352, 1625.275269 963.916687, 1626.566772 961.555603, 1627.525269 959.263245, 1628.564209 957.111084, 1631.303589 957.158936, 1634.232422 957.004822, 1635.042603 954.852722, 1635.864746 952.171997, 1636.893921 949.155823, 1637.910767 945.928711, 1636.375610 942.340759, 1637.812256 939.103516, 1639.170166 936.008545, 1640.396118 932.609680, 1641.407959 929.419067, 1642.394775 926.032043, 1643.503296 923.005920, 1644.742432 919.761047, 1643.938843 917.130127, 1643.768677 914.090637, 1645.315430 910.873779, 1647.360840 907.469238, 1650.584595 903.384277, 1653.637085 899.691040, 1656.312012 896.109985, 1660.719849 893.302856, 1665.904785 891.398926, 1670.360840 891.005859, 1675.685669 890.077637, 1680.840576 889.516357, 1686.605591 888.985962, 1691.892578 887.758484, 1696.286499 886.423828, 1701.931519 885.840942, 1707.625244 885.526123, 1713.713135 884.512390, 1718.996704 883.564209, 1724.699585 882.628845, 1730.910645 881.836182, 1736.727661 880.679077, 1741.618164 878.080078, 1748.415405 876.202026, 1754.155151 874.162842, 1759.963257 871.947754, 1764.776489 870.482483, 1768.442871 868.936157, 1772.425659 867.174561, 1776.458618 867.366150, 1779.753662 867.502197, 1783.589966 865.349121, 1787.099731 862.959106, 1790.625000 860.579956, 1795.048462 857.360291, 1798.988892 853.741943, 1803.243652 849.518921, 1806.672119 848.519226, 1810.588013 846.830322, 1814.552490 845.099731, 1818.033203 843.585449, 1822.044800 841.480652, 1825.548584 837.266113, 1828.631104 833.366516, 1832.142578 831.892090, 1835.476318 830.286804, 1839.465210 828.288147, 1842.904541 826.391357, 1846.336548 824.859985, 1849.621826 823.363037, 1852.805298 822.257141, 1855.856689 821.538696, 1858.424561 819.583008, 1860.903198 818.567017, 1863.144287 819.603027, 1862.959839 818.073242, 1862.558350 816.577087, 1860.550903 815.502869, 1861.062378 813.663940, 1861.864136 812.154602, 1862.656860 810.657532, 1863.745728 809.337891, 1865.221191 807.625488, 1868.570190 805.795227, 1872.470703 803.864563, 1875.682251 802.167297, 1879.888306 800.328674, 1883.097046 798.924133, 1886.973145 797.188110, 1891.525269 795.238892, 1894.819946 793.973450, 1898.644531 792.446289, 1901.218628 792.220154, 1905.228638 790.771606, 1908.959229 789.304199, 1911.290894 789.141907, 1913.894287 788.960571, 1916.490723 788.826050, 1918.557251 789.003906, 1920.853271 789.118530, 1924.156128 787.837646, 1927.247437 786.417603, 1930.502075 784.985413, 1932.500366 785.327820, 1934.809326 785.587158, 1937.149414 785.738708, 1939.567749 786.155945, 1941.833252 786.447632, 1944.070801 787.035889, 1946.040894 787.449219, 1947.834961 787.866577, 1949.465210 788.324829, 1949.813843 791.082886, 1951.343750 791.527527, 1952.846069 792.097717, 1954.180908 792.643799, 1955.455200 793.152100, 1956.714722 793.606934, 1957.943359 794.081665, 1959.052002 794.653076, 1960.016602 795.128113, 1960.980347 795.968506, 1961.736938 796.483215, 1962.387207 797.205933, 1963.258423 797.800598, 1963.997314 798.570007, 1965.211670 798.869446, 1963.821411 800.924622, 1964.964478 801.328064, 1966.137939 801.938171, 1967.197510 802.597534, 1968.497559 803.257080, 1969.703003 803.905823, 1970.857666 804.635376, 1971.839600 805.442505, 1972.936890 806.179077, 1973.940918 807.076538, 1975.026489 807.922485, 1975.835449 808.838257, 1978.931396 808.007080, 1982.129761 806.544739, 1985.648560 804.947632, 1989.129395 803.592834, 1990.298218 805.024170, 1991.419556 806.307373, 1992.619141 807.405884, 1993.845825 808.570007, 1995.138428 809.643127, 1999.649536 808.664795, 2003.856201 807.265869, 2006.833008 804.494812, 2008.967651 801.850586, 2010.909668 799.527710, 2012.762085 797.220276, 2014.645020 795.002625, 2016.503784 792.997803, 2018.610352 791.253723, 2020.738403 789.485840, 2022.910156 787.726562, 2024.987427 786.053711, 2027.771362 785.501343, 2030.685913 784.772217, 2033.639771 784.033447, 2036.637695 783.235107, 2038.366699 781.472046, 2040.060913 779.837524, 2041.637817 778.226318, 2045.042114 776.618958, 2048.314209 774.984375, 2051.470947 772.994324, 2054.404053 770.657776, 2057.422119 768.193604, 2059.685791 766.078735, 2061.883057 763.929932, 2064.123291 761.775757, 2066.392822 759.456970, 2068.292480 757.395569, 2070.516113 755.164062, 2072.593262 752.960693, 2074.467285 750.718689, 2076.580566 748.168091, 2078.551758 746.020020, 2080.761719 743.074280, 2082.616699 740.833496, 2084.546631 738.079773, 2086.465820 735.072266, 2088.391846 731.882629, 2090.743164 731.032349, 2092.509766 727.873901, 2094.267334 724.268799, 2095.872070 720.490723, 2097.075684 717.067322, 2098.570557 713.314819, 2100.158936 709.550293, 2101.555176 705.851379, 2104.195801 703.998962, 2106.780029 702.714722, 2107.840332 698.976196, 2109.478271 695.228516, 2111.252686 690.806335, 2113.176025 686.683472, 2114.998047 682.771729, 2116.789551 679.094971, 2119.124512 674.243774, 2120.878174 669.662598, 2123.133545 666.358643, 2125.847656 662.055420, 2128.447998 658.524536, 2131.300537 653.781006, 2134.258789 649.259888, 2135.636963 645.295959, 2137.529053 640.257568, 2139.511719 635.154907, 2142.481201 628.880127, 2144.117188 623.824219, 2148.168457 617.838135, 2152.766846 613.467834, 2157.356445 611.694824, 2161.969727 610.072510, 2167.189941 608.021973, 2172.602539 605.830750, 2176.745361 604.314819, 2180.914062 602.965454, 2183.937500 604.799805, 2186.648682 606.688721, 2189.207764 608.413452, 2191.419434 609.937866, 2193.648193 611.741577, 2195.861572 611.336548, 2198.228760 610.964600, 2200.898926 610.385620, 2203.628174 609.607361, 2206.661621 608.670105, 2209.569824 607.722046, 2212.614014 606.844849, 2215.308838 606.291748, 2217.276367 608.044189, 2219.482910 609.825806, 2222.103271 608.734497, 2224.808105 608.095459, 2227.434326 607.353271, 2230.079102 606.774658, 2232.531494 606.263550, 2235.140137 605.842163, 2237.757812 605.401001, 2239.767578 606.240723, 2242.292969 605.625305, 2245.104248 605.033081, 2247.485596 604.404663, 2250.099365 603.773315, 2252.554688 603.099976, 2255.258545 602.338623, 2258.052246 601.599426, 2260.717041 600.758301, 2263.528809 599.746094, 2266.468750 598.843994, 2269.126709 597.855042, 2271.987549 596.795532, 2274.836670 595.719971, 2277.892578 594.581055, 2281.181885 593.361084, 2284.382812 592.172485, 2287.592773 590.991882, 2290.736328 589.450928, 2291.960449 587.677734, 2293.155029 585.658875, 2294.274414 583.606384, 2297.289551 582.125000, 2300.022949 580.221313, 2302.388428 578.765625, 2304.637939 576.899597, 2305.395508 574.437256, 2306.115234 571.833008, 2306.880615 569.155396, 2307.811279 566.371948, 2308.900635 563.452881, 2310.137207 560.588867, 2311.557373 557.668579, 2313.181641 554.546875, 2314.929932 551.029663, 2314.027344 550.788940, 2316.712158 547.744751, 2313.601562 545.260010, 2312.365234 544.540527, 2311.524902 545.174927, 2310.229736 544.485168, 2307.607178 548.050293, 2303.471191 549.393066, 2301.712646 548.000610, 2300.570312 546.651123, 2299.334229 545.376953, 2297.751221 544.352051, 2300.002197 541.226196, 2301.850098 536.934509, 2300.478516 537.149475, 2299.163574 535.700806, 2297.897705 534.207764, 2296.638916 532.805054, 2295.472412 531.188599, 2294.377930 529.626465, 2293.180664 527.910400, 2292.000244 526.281616, 2290.769531 524.535522, 2289.732666 522.737915, 2286.580322 524.003418, 2282.694092 524.226196, 2279.127930 524.469849, 2278.090820 522.833130, 2277.027832 521.415039, 2276.134521 520.014160, 2275.272217 518.687134, 2274.501709 517.396912, 2273.797852 516.058594, 2273.064941 514.719910, 2272.438232 513.359802, 2272.032227 512.169800, 2274.211914 509.549011, 2273.682617 508.725525, 2273.491211 507.464172, 2272.911865 506.396667, 2272.447510 505.280762, 2272.028320 504.080322, 2271.473389 502.739380, 2270.904053 501.371948, 2270.476807 500.006714, 2270.010254 498.563599, 2269.618896 497.113770, 2267.132080 497.652954, 2264.226562 497.241821, 2261.508545 496.865051, 2261.185303 495.010254, 2260.920898 493.168518, 2260.615479 491.426453, 2258.285645 491.164307, 2255.587402 490.272705, 2252.748535 489.149170, 2250.100586 487.943298, 2249.885742 485.368835, 2249.421143 482.795654, 2249.204346 480.063721, 2248.735596 477.825256, 2246.155762 476.626526, 2245.964355 473.959167, 2245.484619 471.387024, 2245.169678 468.654419, 2244.969238 465.781189, 2244.473145 462.746277, 2241.899414 461.569458, 2239.222412 459.600098, 2236.875244 457.879333, 2236.453857 455.188660, 2235.706299 451.771118, 2235.020264 448.600098, 2234.396973 445.312073, 2232.356445 444.258057, 2231.576904 441.325745, 2230.700195 437.920105, 2229.935547 434.669922, 2231.023193 431.294556, 2230.113770 428.382935, 2229.119141 424.950317, 2227.971191 421.933228, 2226.826416 418.882874, 2225.696777 415.852112, 2224.486816 412.650330, 2223.338135 409.245422, 2222.288086 406.398132, 2221.128662 403.588135, 2221.459229 399.767273, 2221.717041 395.745361, 2221.926270 391.789490, 2222.298340 388.361450, 2222.729980 384.803955, 2223.033691 381.417786, 2221.729492 379.327698, 2220.446533 377.258240, 2219.155518 375.291565, 2219.251221 371.834839, 2219.305664 368.418762, 2219.197510 365.092285Z "/>
    </clipPath>
    <filter id="dropshadow">
      <feGaussianBlur in="SourceAlpha" stdDeviation="2"/>
      <feMerge>
        <feMergeNode/>
        <feMergeNode in="SourceGraphic"/>
      </feMerge>
    </filter>
  </defs>
  <g inkscape:label="rois" inkscape:groupmode="layer" id="roilayer" transform="translate(0,0)" style="display:inline;" clip-path="url(#edgeclip)"/>
  <g inkscape:label="roilabels" inkscape:groupmode="layer" id="roilabels" transform="translate(0,0)" style="display:inline;">
  </g>
</svg>
